# Blender v2.80 (sub 75) OBJ File: 'barel.blend'
# www.blender.org
mtllib barel.mtl
o Cylinder
v 0.708711 -1.000000 0.705499
v 0.708711 1.000000 0.705499
v 0.002271 -1.000000 0.999997
v 0.002271 1.000000 0.999997
v -0.705499 -1.000000 0.708711
v -0.705499 1.000000 0.708711
v -0.999997 -1.000000 0.002271
v -0.999997 1.000000 0.002271
v -0.708711 -1.000000 -0.705499
v -0.708711 1.000000 -0.705499
v -0.002271 -1.000000 -0.999997
v -0.002271 1.000000 -0.999997
v 0.705499 -1.000000 -0.708711
v 0.705499 1.000000 -0.708711
v 0.999997 -1.000000 -0.002271
v 0.999997 1.000000 -0.002271
v 0.757616 -0.654371 0.754183
v 0.757616 0.654371 0.754183
v 0.002428 0.654371 1.069003
v 0.002428 -0.654371 1.069003
v -0.754183 0.654371 0.757616
v -0.754183 -0.654371 0.757616
v -1.069003 0.654371 0.002428
v -1.069003 -0.654371 0.002428
v -0.757616 0.654371 -0.754183
v -0.757616 -0.654371 -0.754183
v -0.002427 0.654371 -1.069003
v -0.002427 -0.654371 -1.069003
v 0.754183 0.654371 -0.757616
v 0.754183 -0.654371 -0.757616
v 1.069003 0.654371 -0.002428
v 1.069003 -0.654371 -0.002428
v 0.757616 -0.533783 0.754183
v 0.757616 0.533783 0.754183
v 0.002428 0.533783 1.069003
v 0.002428 -0.533783 1.069003
v -0.754183 0.533783 0.757616
v -0.754183 -0.533783 0.757616
v -1.069003 0.533783 0.002428
v -1.069003 -0.533783 0.002428
v -0.757616 0.533783 -0.754183
v -0.757616 -0.533783 -0.754183
v -0.002427 0.533783 -1.069003
v -0.002427 -0.533783 -1.069003
v 0.754183 0.533783 -0.757616
v 0.754183 -0.533783 -0.757616
v 1.069003 0.533783 -0.002428
v 1.069003 -0.533783 -0.002428
v 0.796332 0.530702 0.792723
v 0.796332 0.657452 0.792723
v 1.123631 0.657452 -0.002552
v 0.792723 0.657452 -0.796332
v -0.002551 0.657452 -1.123631
v -0.796332 0.657452 -0.792723
v -1.123631 0.657452 0.002552
v -0.792723 0.657452 0.796332
v 0.002552 0.657452 1.123631
v 0.002552 0.530702 1.123631
v -0.792723 0.530702 0.796332
v -1.123631 0.530702 0.002552
v -0.796332 0.530702 -0.792723
v -0.002551 0.530702 -1.123631
v 0.792723 0.530702 -0.796332
v 1.123631 0.530702 -0.002552
v 0.002553 -0.530661 1.124347
v 0.002553 -0.657492 1.124347
v -0.793228 -0.530661 0.796839
v -0.793228 -0.657492 0.796839
v -1.124347 -0.530661 0.002553
v -1.124347 -0.657492 0.002553
v -0.796839 -0.530661 -0.793228
v -0.796839 -0.657492 -0.793228
v -0.002553 -0.530661 -1.124347
v -0.002553 -0.657492 -1.124347
v 0.793228 -0.530661 -0.796839
v 0.793228 -0.657492 -0.796839
v 1.124347 -0.530661 -0.002553
v 1.124347 -0.657492 -0.002553
v 0.796839 -0.657492 0.793228
v 0.796839 -0.530661 0.793228
v 0.001954 1.000000 0.860382
v 0.609763 1.000000 0.607000
v -0.607000 1.000000 0.609763
v -0.860382 1.000000 0.001954
v -0.609763 1.000000 -0.607000
v -0.001954 1.000000 -0.860382
v 0.607000 1.000000 -0.609763
v 0.860382 1.000000 -0.001954
v 0.001954 0.815480 0.860382
v 0.609763 0.815480 0.607000
v -0.607000 0.815480 0.609763
v -0.860382 0.815480 0.001954
v -0.609763 0.815480 -0.607000
v -0.001954 0.815480 -0.860382
v 0.607000 0.815480 -0.609763
v 0.860382 0.815480 -0.001954
vt 0.870845 0.865266
vt 0.824363 0.856695
vt 0.824363 0.783937
vt 0.870845 0.787487
vt 0.824363 0.681041
vt 0.870845 0.677490
vt 0.824363 0.608282
vt 0.870844 0.599711
vt 0.873634 0.597378
vt 0.920115 0.600928
vt 0.920115 0.703824
vt 0.873634 0.707374
vt 0.920115 0.776582
vt 0.873634 0.785153
vt 0.969386 0.785153
vt 0.922904 0.781603
vt 0.922904 0.678707
vt 0.969386 0.675157
vt 0.639801 0.847610
vt 0.567018 0.774851
vt 0.567018 0.671955
vt 0.639801 0.599197
vt 0.922904 0.605949
vt 0.969386 0.597378
vt 0.689276 0.538892
vt 0.642795 0.535342
vt 0.642795 0.432446
vt 0.689276 0.428896
vt 0.742731 0.599197
vt 0.742731 0.847610
vt 0.593524 0.432446
vt 0.640006 0.428896
vt 0.640006 0.538892
vt 0.593524 0.535342
vt 0.576965 0.388810
vt 0.499161 0.311031
vt 0.501972 0.304246
vt 0.583753 0.386000
vt 0.897894 0.338633
vt 0.944376 0.342184
vt 0.944376 0.419963
vt 0.897894 0.411392
vt 0.576965 0.092938
vt 0.499161 0.015159
vt 0.501972 0.008374
vt 0.583753 0.090128
vt 0.897894 0.235737
vt 0.944376 0.232187
vt 0.311323 0.498807
vt 0.389128 0.576586
vt 0.386316 0.583371
vt 0.304535 0.501617
vt 0.249332 0.679084
vt 0.202850 0.675534
vt 0.202850 0.597755
vt 0.249332 0.606326
vt 0.311323 0.202934
vt 0.389128 0.280713
vt 0.386316 0.287499
vt 0.304535 0.205745
vt 0.249332 0.781980
vt 0.202850 0.785530
vt 0.389128 0.311031
vt 0.386316 0.304246
vt 0.153580 0.784313
vt 0.200062 0.787863
vt 0.200062 0.865643
vt 0.153580 0.857072
vt 0.389128 0.015159
vt 0.386316 0.008374
vt 0.153580 0.681417
vt 0.200062 0.677867
vt 0.499161 0.576586
vt 0.501972 0.583371
vt 0.153580 0.608659
vt 0.200062 0.600088
vt 0.499160 0.280713
vt 0.501972 0.287499
vt 0.280901 0.093032
vt 0.203096 0.015253
vt 0.205944 0.008379
vt 0.287777 0.090185
vt 0.823066 0.115630
vt 0.966637 0.115630
vt 0.966637 0.193409
vt 0.823066 0.193409
vt 0.015258 0.203029
vt 0.093063 0.280808
vt 0.090215 0.287682
vt 0.008382 0.205876
vt 0.740008 0.419963
vt 0.596437 0.419963
vt 0.596437 0.309966
vt 0.740008 0.309966
vt 0.280901 0.389093
vt 0.203096 0.311314
vt 0.205944 0.304440
vt 0.287777 0.386246
vt 0.596437 0.232187
vt 0.740008 0.232187
vt 0.015258 0.093032
vt 0.008382 0.090185
vt 0.004307 0.597755
vt 0.147878 0.597755
vt 0.147878 0.707751
vt 0.004307 0.707751
vt 0.015258 0.499089
vt 0.093063 0.576868
vt 0.090215 0.583742
vt 0.008382 0.501937
vt 0.147878 0.785530
vt 0.004307 0.785530
vt 0.280901 0.203029
vt 0.287777 0.205876
vt 0.892193 0.419963
vt 0.748622 0.419963
vt 0.748622 0.309966
vt 0.892193 0.309966
vt 0.280901 0.499089
vt 0.287777 0.501937
vt 0.748622 0.232187
vt 0.892193 0.232187
vt 0.093063 0.015253
vt 0.090215 0.008379
vt 0.823066 0.005633
vt 0.966637 0.005633
vt 0.787140 0.544682
vt 0.770094 0.544682
vt 0.770094 0.429064
vt 0.787140 0.429064
vt 0.999489 0.314229
vt 0.982443 0.314229
vt 0.982443 0.232475
vt 0.999489 0.232475
vt 0.999489 0.429846
vt 0.982443 0.429846
vt 0.872750 0.912325
vt 0.889796 0.912325
vt 0.889796 0.994079
vt 0.872750 0.994079
vt 0.872750 0.796708
vt 0.889796 0.796708
vt 0.277542 0.797866
vt 0.294588 0.797866
vt 0.294588 0.879620
vt 0.277542 0.879620
vt 0.277542 0.682249
vt 0.294588 0.682249
vt 0.277542 0.600495
vt 0.294588 0.600495
vt 0.576965 0.202934
vt 0.583753 0.205745
vt 0.311323 0.092938
vt 0.304535 0.090128
vt 0.311323 0.388810
vt 0.304535 0.386000
vt 0.576965 0.498807
vt 0.583753 0.501617
vt 0.964363 0.348170
vt 0.981420 0.348170
vt 0.981420 0.429976
vt 0.964363 0.429976
vt 0.963339 0.429976
vt 0.946283 0.429976
vt 0.946282 0.314285
vt 0.963339 0.314285
vt 0.946282 0.232479
vt 0.963339 0.232479
vt 0.988512 0.203422
vt 0.971456 0.203422
vt 0.971456 0.087731
vt 0.988512 0.087731
vt 0.971456 0.005925
vt 0.988512 0.005925
vt 0.988349 0.795166
vt 0.971292 0.795166
vt 0.971292 0.679475
vt 0.988349 0.679475
vt 0.971292 0.597670
vt 0.988349 0.597670
vt 0.964363 0.232479
vt 0.981420 0.232479
vt 0.203096 0.576868
vt 0.205944 0.583742
vt 0.093063 0.311314
vt 0.090215 0.304440
vt 0.203096 0.280808
vt 0.205944 0.287682
vt 0.015258 0.389093
vt 0.008382 0.386246
vt 0.815513 0.671955
vt 0.815513 0.774851
vt 0.376396 0.599197
vt 0.479326 0.599197
vt 0.472141 0.616538
vt 0.383582 0.616538
vt 0.552109 0.774851
vt 0.479326 0.847610
vt 0.472141 0.830268
vt 0.534762 0.767668
vt 0.303614 0.774851
vt 0.303614 0.671955
vt 0.320961 0.679138
vt 0.320961 0.767668
vt 0.744023 0.516782
vt 0.744023 0.428252
vt 0.768838 0.428252
vt 0.768838 0.516782
vt 0.251471 0.749663
vt 0.251471 0.661133
vt 0.276286 0.661133
vt 0.276286 0.749663
vt 0.716230 0.492730
vt 0.716230 0.581260
vt 0.691415 0.581260
vt 0.691415 0.492730
vt 0.376396 0.847610
vt 0.383582 0.830268
vt 0.552109 0.671955
vt 0.534762 0.679138
vt 0.749724 0.220142
vt 0.661164 0.220142
vt 0.661164 0.006412
vt 0.749724 0.006412
vt 0.598543 0.069012
vt 0.598543 0.157542
vt 0.812344 0.157542
vt 0.812344 0.069012
vt 0.742534 0.492730
vt 0.742534 0.581260
vt 0.717719 0.581260
vt 0.717719 0.492730
vt 0.251471 0.812263
vt 0.276286 0.812263
vt 0.251471 0.598533
vt 0.276286 0.598533
vt 0.742534 0.430130
vt 0.717719 0.430130
vt 0.716230 0.430130
vt 0.691415 0.430130
vn 0.3784 0.1814 0.9077
vn -0.3743 0.1814 0.9094
vn -0.9077 0.1814 0.3784
vn -0.9094 0.1814 -0.3743
vn -0.3784 0.1814 -0.9077
vn 0.3743 0.1814 -0.9094
vn 0.0000 -1.0000 -0.0000
vn 0.9077 0.1814 -0.3784
vn 0.9094 0.1814 0.3743
vn 0.9094 -0.1814 0.3743
vn -0.0562 -0.9981 0.0234
vn 0.9077 -0.1814 -0.3784
vn -0.0234 0.9981 -0.0562
vn 0.3743 -0.1814 -0.9094
vn 0.0562 -0.9981 -0.0234
vn -0.3784 -0.1814 -0.9077
vn 0.0234 0.9981 0.0562
vn -0.9094 -0.1814 -0.3743
vn -0.0232 -0.9981 0.0564
vn -0.9077 -0.1814 0.3784
vn 0.0232 0.9981 -0.0564
vn -0.3743 -0.1814 0.9094
vn 0.0232 -0.9981 -0.0563
vn 0.3784 -0.1814 0.9077
vn -0.0232 0.9981 0.0564
vn 0.0564 -0.9981 0.0232
vn 0.3848 0.0000 0.9230
vn -0.0564 -0.9981 -0.0232
vn -0.3806 0.0000 0.9247
vn -0.0562 0.9981 0.0234
vn -0.9230 0.0000 0.3848
vn -0.0234 -0.9981 -0.0562
vn -0.9247 0.0000 -0.3806
vn 0.0562 0.9981 -0.0234
vn -0.3848 0.0000 -0.9230
vn 0.0234 -0.9981 0.0562
vn 0.3806 0.0000 -0.9247
vn 0.9230 0.0000 -0.3848
vn 0.9247 0.0000 0.3806
vn -0.0564 0.9981 -0.0232
vn 0.0564 0.9981 0.0232
vn -0.0232 -0.9981 0.0563
vn 0.0000 1.0000 0.0000
usemtl Material.000
s off
f 18/1/1 2/2/1 4/3/1 19/4/1
f 19/4/2 4/3/2 6/5/2 21/6/2
f 21/6/3 6/5/3 8/7/3 23/8/3
f 23/9/4 8/10/4 10/11/4 25/12/4
f 25/12/5 10/11/5 12/13/5 27/14/5
f 27/15/6 12/16/6 14/17/6 29/18/6
f 1/19/7 3/20/7 5/21/7 7/22/7
f 29/18/8 14/17/8 16/23/8 31/24/8
f 31/25/9 16/26/9 2/27/9 18/28/9
f 7/22/7 9/29/7 15/30/7 1/19/7
f 15/31/10 32/32/10 17/33/10 1/34/10
f 47/35/11 45/36/11 63/37/11 64/38/11
f 13/39/12 30/40/12 32/41/12 15/42/12
f 18/43/13 19/44/13 57/45/13 50/46/13
f 11/47/14 28/48/14 30/40/14 13/39/14
f 39/49/15 37/50/15 59/51/15 60/52/15
f 9/53/16 26/54/16 28/55/16 11/56/16
f 25/57/17 27/58/17 53/59/17 54/60/17
f 7/61/18 24/62/18 26/54/18 9/53/18
f 45/36/19 43/63/19 62/64/19 63/37/19
f 5/65/20 22/66/20 24/67/20 7/68/20
f 19/44/21 21/69/21 56/70/21 57/45/21
f 3/71/22 20/72/22 22/66/22 5/65/22
f 37/50/23 35/73/23 58/74/23 59/51/23
f 1/75/24 17/76/24 20/72/24 3/71/24
f 27/58/25 29/77/25 52/78/25 53/59/25
f 26/79/26 24/80/26 70/81/26 72/82/26
f 33/83/27 34/84/27 35/85/27 36/86/27
f 17/87/28 32/88/28 78/89/28 79/90/28
f 36/91/29 35/92/29 37/93/29 38/94/29
f 46/95/30 48/96/30 77/97/30 75/98/30
f 38/94/31 37/93/31 39/99/31 40/100/31
f 20/101/32 17/87/32 79/90/32 66/102/32
f 40/103/33 39/104/33 41/105/33 42/106/33
f 38/107/34 40/108/34 69/109/34 67/110/34
f 42/106/35 41/105/35 43/111/35 44/112/35
f 28/113/36 26/79/36 72/82/36 74/114/36
f 44/115/37 43/116/37 45/117/37 46/118/37
f 44/119/25 46/95/25 75/98/25 73/120/25
f 46/118/38 45/117/38 47/121/38 48/122/38
f 22/123/23 20/101/23 66/102/23 68/124/23
f 48/125/39 47/126/39 34/84/39 33/83/39
f 64/127/39 51/128/39 50/129/39 49/130/39
f 63/131/38 52/132/38 51/133/38 64/134/38
f 62/135/37 53/136/37 52/132/37 63/131/37
f 61/137/35 54/138/35 53/139/35 62/140/35
f 60/141/33 55/142/33 54/138/33 61/137/33
f 59/143/31 56/144/31 55/145/31 60/146/31
f 58/147/29 57/148/29 56/144/29 59/143/29
f 49/149/27 50/150/27 57/148/27 58/147/27
f 31/151/40 18/43/40 50/46/40 51/152/40
f 23/153/41 25/57/41 54/60/41 55/154/41
f 41/155/26 39/49/26 60/52/26 61/156/26
f 34/157/28 47/35/28 64/38/28 49/158/28
f 29/77/30 31/151/30 51/152/30 52/78/30
f 35/73/32 34/157/32 49/158/32 58/74/32
f 21/69/34 23/153/34 55/154/34 56/70/34
f 43/63/36 41/155/36 61/156/36 62/64/36
f 79/159/27 80/160/27 65/161/27 66/162/27
f 66/163/29 65/164/29 67/165/29 68/166/29
f 68/166/31 67/165/31 69/167/31 70/168/31
f 70/169/33 69/170/33 71/171/33 72/172/33
f 72/172/35 71/171/35 73/173/35 74/174/35
f 74/175/37 73/176/37 75/177/37 76/178/37
f 76/178/38 75/177/38 77/179/38 78/180/38
f 78/181/39 77/182/39 80/160/39 79/159/39
f 40/108/41 42/183/41 71/184/41 69/109/41
f 48/96/40 33/185/40 80/186/40 77/97/40
f 32/88/11 30/187/11 76/188/11 78/89/11
f 33/185/13 36/189/13 65/190/13 80/186/13
f 24/80/15 22/123/15 68/124/15 70/81/15
f 42/183/17 44/119/17 73/120/17 71/184/17
f 30/187/42 28/113/42 74/114/42 76/188/42
f 36/189/21 38/107/21 67/110/21 65/190/21
f 9/29/7 11/191/7 13/192/7 15/30/7
f 6/193/43 4/194/43 81/195/43 83/196/43
f 16/197/43 14/198/43 87/199/43 88/200/43
f 10/201/43 8/202/43 84/203/43 85/204/43
f 85/205/39 84/206/39 92/207/39 93/208/39
f 87/209/29 86/210/29 94/211/29 95/212/29
f 82/213/33 88/214/33 96/215/33 90/216/33
f 12/217/43 10/201/43 85/204/43 86/218/43
f 2/219/43 16/197/43 88/200/43 82/220/43
f 4/194/43 2/219/43 82/220/43 81/195/43
f 8/202/43 6/193/43 83/196/43 84/203/43
f 14/198/43 12/217/43 86/218/43 87/199/43
f 93/221/43 92/222/43 90/223/43 96/224/43
f 89/225/43 90/223/43 92/222/43 91/226/43
f 94/227/43 93/221/43 96/224/43 95/228/43
f 83/229/37 81/230/37 89/231/37 91/232/37
f 88/233/31 87/209/31 95/212/31 96/234/31
f 86/210/27 85/235/27 93/236/27 94/211/27
f 84/237/38 83/229/38 91/232/38 92/238/38
f 81/239/35 82/213/35 90/216/35 89/240/35
